<svg width="19" height="23" viewBox="0 0 19 23" fill="none" xmlns="http://www.w3.org/2000/svg">
<path d="M15.6312 11.9239C15.6529 10.2368 16.5374 8.67852 17.9747 7.79489C17.0638 6.49404 15.5929 5.69884 14.0057 5.64918C12.3358 5.4739 10.7168 6.64844 9.86588 6.64844C8.99845 6.64844 7.68827 5.66658 6.27741 5.69561C4.42109 5.75559 2.73245 6.78543 1.82931 8.40834C-0.0939556 11.7382 1.34063 16.6319 3.18296 19.3235C4.10471 20.6415 5.18198 22.1137 6.59157 22.0615C7.97093 22.0043 8.48609 21.182 10.1511 21.182C11.8007 21.182 12.284 22.0615 13.7222 22.0283C15.2023 22.0043 16.1348 20.7045 17.0243 19.374C17.6865 18.4349 18.1962 17.397 18.5343 16.2987C16.7763 15.5551 15.6333 13.8326 15.6312 11.9239Z" fill="white"/>
<path d="M12.9146 3.87896C13.7216 2.91016 14.1192 1.66493 14.0229 0.407715C12.79 0.537213 11.6511 1.12648 10.8331 2.05812C10.0255 2.97729 9.61631 4.17983 9.69578 5.40085C10.9453 5.41372 12.1316 4.85279 12.9146 3.87896Z" fill="white"/>
</svg>
