<svg width="30" height="33" viewBox="0 0 30 33" fill="none" xmlns="http://www.w3.org/2000/svg">
<path fill-rule="evenodd" clip-rule="evenodd" d="M6.11523 7C2.80153 7 0.115234 9.68629 0.115234 13V27C0.115234 30.3137 2.80152 33 6.11523 33H23.9698C27.2835 33 29.9698 30.3137 29.9698 27V13C29.9698 9.68629 27.2835 7 23.9698 7H6.11523ZM6.36172 9.25C4.15259 9.25 2.36172 11.0409 2.36172 13.25V27.25C2.36172 29.4591 4.15259 31.25 6.36173 31.25H23.7078C25.9169 31.25 27.7078 29.4591 27.7078 27.25V13.25C27.7078 11.0409 25.9169 9.25 23.7078 9.25H6.36172Z" fill="black"/>
<path d="M6.10645 13L6.64845 7.6143C6.82477 5.86227 7.67659 4.24781 9.02327 3.11329V3.11329C9.84587 2.42029 10.8217 1.9332 11.87 1.69234L12.691 1.5037C14.1353 1.17187 15.6344 1.15819 17.0844 1.46359L17.9512 1.64615C19.2324 1.91598 20.4137 2.53561 21.364 3.43625V3.43625C22.589 4.59731 23.3592 6.15765 23.5358 7.83622L24.0791 13" stroke="black" stroke-width="2" stroke-linecap="round"/>
</svg>
