<svg width="21" height="20" viewBox="0 0 21 20" fill="none" xmlns="http://www.w3.org/2000/svg">
<g clip-path="url(#clip0_42_3006)">
<path d="M7.94108 15.5464C8.46909 15.3603 9.03834 15.3247 9.58537 15.4436C10.0443 15.5087 10.5072 15.5413 10.9708 15.5411C15.4147 15.5411 18.9162 12.5982 18.9162 9.12071C18.9162 5.64357 15.4144 2.70071 10.9708 2.70071C6.52645 2.70071 3.02534 5.64357 3.02534 9.12071C3.02534 10.9161 3.95429 12.6157 5.58324 13.8314C5.7016 13.917 5.82132 14.0007 5.94233 14.0825C5.9352 14.0779 5.96195 14.0957 5.92557 14.0739L5.99333 14.1143L6.0568 14.1611C6.70653 14.6404 7.01677 15.2821 7.06028 15.9818C7.40903 15.7879 7.74388 15.6143 7.94108 15.5464ZM1.75977 9.12857C1.75977 4.85357 5.88314 1.3875 10.9708 1.3875C16.0577 1.3875 20.1818 4.85321 20.1818 9.12785C20.1818 13.4032 16.0577 16.8693 10.9708 16.8693C10.4184 16.8693 9.87849 16.8282 9.35286 16.7504L9.34965 16.7496C8.10547 16.4525 7.57877 17.8382 4.74344 18.5568C4.16111 18.7046 4.09086 18.5575 4.53697 18.0836C5.34432 17.2279 6.12242 15.8329 5.31365 15.2364C5.28869 15.2221 4.97702 15.0064 4.85827 14.9193C2.95759 13.5014 1.75977 11.4311 1.75977 9.12785" fill="black"/>
</g>
<defs>
<clipPath id="clip0_42_3006">
<rect width="19.9696" height="20" fill="white" transform="translate(0.986328)"/>
</clipPath>
</defs>
</svg>
