<svg width="411" height="18" viewBox="0 0 411 18" fill="none" xmlns="http://www.w3.org/2000/svg">
<g clip-path="url(#clip0_42_1653)">
<g clip-path="url(#clip1_42_1653)">
<g clip-path="url(#clip2_42_1653)">
<path d="M13.2549 5.93277C12.6478 5.52805 11.7372 5.32568 10.7254 5.32568C9.51118 5.32568 8.49936 5.52805 7.6899 6.03396C6.98163 6.43868 6.47572 7.04577 6.27336 7.65286C6.071 8.36113 6.27336 8.86704 6.88045 9.27177C7.184 9.47413 7.89227 9.6765 8.90409 9.77768L9.9159 9.98004C10.523 10.0812 10.9277 10.1824 11.2313 10.2836C11.5348 10.3848 11.5348 10.5871 11.5348 10.7895C11.4336 11.1942 11.0289 11.4978 10.4218 11.5989C10.1183 11.7001 9.71354 11.7001 9.20763 11.7001C8.39818 11.7001 7.79109 11.5989 7.58872 11.1942C7.48754 11.093 7.38636 10.7895 7.38636 10.4859H5.36273C5.16036 11.1942 5.46391 11.9025 6.071 12.3072C6.67809 12.7119 7.6899 13.0155 9.00527 13.0155C10.2194 13.0155 11.3324 12.8131 12.1419 12.3072C12.9514 11.9025 13.4573 11.2954 13.5584 10.6883C13.6596 10.0812 13.5584 9.47413 13.0525 9.17059C12.749 8.96822 12.2431 8.76586 11.4336 8.66468L9.81472 8.36113C9.20763 8.25995 8.8029 8.15877 8.60054 8.05759C8.29699 7.95641 8.19581 7.75404 8.29699 7.4505C8.39818 7.14695 8.60054 6.94459 8.90409 6.74223C9.00527 6.64104 9.51117 6.53986 10.0171 6.53986C10.523 6.53986 10.9277 6.64104 11.2313 6.74223C11.7372 6.94459 11.8384 7.24813 11.7372 7.75404H13.7608C14.0644 6.94459 13.862 6.3375 13.2549 5.93277Z" fill="white"/>
<path d="M23.3731 5.52808H15.3797L15.0762 6.84344H18.0104L16.5939 13.0155H18.6175L20.1353 6.84344H23.0695L23.3731 5.52808Z" fill="white"/>
<path d="M22.8672 13.0155H30.3546L30.6582 11.7002H25.1944L25.7003 9.77771H30.4558L30.7594 8.46234H25.9026L26.3074 6.84344H31.5688L31.8724 5.52808H24.5873L22.8672 13.0155Z" fill="white"/>
<path d="M31.9736 13.0155H39.4611L39.7646 11.7002H34.3008L34.7055 9.77771H39.5623L39.8658 8.46234H35.1103L35.4138 6.84344H40.6753L40.9788 5.52808H33.7949L31.9736 13.0155Z" fill="white"/>
<path d="M49.2753 6.13517C48.7694 5.73044 48.0611 5.52808 47.0493 5.52808H42.9009L41.0796 13.0155H43.1032L43.7103 10.2836H45.7339C46.8469 10.2836 47.6564 10.0813 48.3647 9.77771C49.0729 9.47416 49.4777 8.76589 49.68 7.95644C49.8824 7.0458 49.7812 6.53989 49.2753 6.13517ZM47.6564 7.85525C47.6564 8.36116 47.454 8.56353 47.0493 8.76589C46.7458 8.96825 46.341 9.06943 45.8351 9.06943H44.0139L44.6209 6.84344H46.4422C46.9481 6.84344 47.2517 6.94462 47.454 7.14698C47.6564 7.24816 47.7576 7.55171 47.6564 7.85525Z" fill="white"/>
<path d="M62.6314 5.52808H54.7392L54.3345 6.84344H57.3699L55.8522 13.0155H57.977L59.3936 6.84344H62.3278L62.6314 5.52808Z" fill="white"/>
<path d="M62.1255 13.0155H69.6129L69.9165 11.7002H64.4527L64.8574 9.77771H69.7141L70.0177 8.46234H65.2621L65.5657 6.84344H70.8271L71.1307 5.52808H63.9468L62.1255 13.0155Z" fill="white"/>
<path d="M76.898 5.32568C75.6838 5.32568 74.672 5.62923 73.6602 6.23632C72.5472 6.94459 71.8389 7.85523 71.6365 9.17059C71.333 10.3848 71.5353 11.2954 72.1424 11.9025C72.7495 12.6108 73.7613 12.9143 75.1779 12.9143C76.2909 12.9143 77.3027 12.6108 78.1122 12.206C78.9216 11.7001 79.5287 11.093 79.9334 10.2836H77.9098C77.7074 10.5871 77.4039 10.9919 77.2015 11.093C76.6956 11.3966 76.1897 11.5989 75.4814 11.5989C74.7732 11.5989 74.2672 11.3966 73.8625 10.9919C73.559 10.5871 73.4578 9.98004 73.6602 9.17059C73.8625 8.36113 74.1661 7.75404 74.7732 7.34932C75.2791 6.84341 75.9873 6.64105 76.6956 6.64105C77.4039 6.64105 77.9098 6.74223 78.2133 7.14695C78.3145 7.34932 78.5169 7.55168 78.5169 7.85523H80.5405C80.6417 7.34932 80.5405 6.94459 80.237 6.43868C79.7311 5.73041 78.6181 5.32568 76.898 5.32568Z" fill="white"/>
<path d="M88.0279 8.36116H84.183L84.8913 5.52808H82.8677L81.0464 13.0155H83.07L83.8795 9.67653H87.7244L86.9149 13.0155H88.9386L90.7598 5.52808H88.7362L88.0279 8.36116Z" fill="white"/>
<path d="M155.921 0.974854V3.80794H160.879V17.3663H164.319V3.80794H169.176V0.974854H155.921Z" fill="white"/>
<path d="M126.781 13.8249L123.745 0.974854H118.686V17.3663H121.924V6.2363C121.924 5.93276 121.924 5.52803 121.924 4.92094C121.924 4.31385 121.924 3.90912 121.924 3.60558L125.06 17.3663H128.399L131.536 3.60558C131.536 3.90912 131.536 4.31385 131.536 4.92094C131.536 5.42685 131.536 5.93276 131.536 6.2363V17.3663H134.774V0.974854H129.816L126.781 13.8249Z" fill="white"/>
<path d="M151.064 9.17062C150.457 8.66471 149.445 8.25998 148.231 7.95644L145.297 7.24817C144.184 6.94462 143.476 6.74226 143.071 6.53989C142.565 6.23635 142.262 5.83162 142.262 5.22453C142.262 4.61744 142.565 4.11153 143.071 3.70681C143.577 3.40326 144.285 3.2009 145.297 3.2009C146.106 3.2009 146.815 3.30208 147.321 3.60563C148.13 4.01035 148.535 4.71862 148.636 5.73044H151.975C151.874 4.01035 151.267 2.59381 150.053 1.78436C148.838 0.974902 147.321 0.468994 145.601 0.468994C143.476 0.468994 141.857 0.974903 140.744 1.88554C139.631 2.89735 139.125 4.11153 139.125 5.52808C139.125 7.14698 139.631 8.36116 140.744 9.06944C141.452 9.57535 142.565 9.98007 144.285 10.2836L146.106 10.6883C147.118 10.8907 147.928 11.1943 148.332 11.3966C148.737 11.599 149.041 12.1049 149.041 12.6108C149.041 13.5214 148.535 14.2297 147.624 14.5332C147.118 14.7356 146.41 14.8368 145.601 14.8368C144.184 14.8368 143.273 14.5332 142.666 13.825C142.363 13.5214 142.16 12.8132 142.059 12.2061H138.72C138.72 13.9262 139.327 15.2415 140.541 16.1522C141.756 17.164 143.476 17.5687 145.601 17.5687C147.725 17.5687 149.344 17.0628 150.558 16.051C151.773 15.0392 152.279 13.825 152.279 12.3073C152.481 11.0931 151.975 9.98007 151.064 9.17062Z" fill="white"/>
<path d="M113.526 16.0509C113.425 15.7474 113.425 15.3427 113.425 14.5332V13.4202C113.425 12.206 113.323 11.3966 112.919 10.8907C112.615 10.3848 112.109 9.87884 111.3 9.5753C112.21 9.27175 112.919 8.76584 113.222 7.95639C113.627 7.24812 113.829 6.43866 113.829 5.73039C113.829 5.1233 113.728 4.51621 113.526 4.0103C113.323 3.5044 113.02 2.99849 112.716 2.59376C112.312 2.08785 111.705 1.68313 111.199 1.37958C110.592 1.07604 109.782 0.974854 108.568 0.974854H100.676V17.3663H104.015V10.9918H107.354C108.366 10.9918 108.973 11.1942 109.276 11.4977C109.58 11.8013 109.782 12.5096 109.782 13.5214V15.0391C109.782 15.545 109.883 16.0509 109.883 16.4557C109.984 16.658 109.984 16.9616 110.086 17.3663H113.829V16.8604C113.728 16.7592 113.526 16.4557 113.526 16.0509ZM109.377 7.85521C109.074 8.05757 108.467 8.15875 107.758 8.15875H104.015V3.80794H107.758C108.467 3.80794 108.973 3.90912 109.377 4.11149C109.984 4.41503 110.389 5.1233 110.389 6.13512C110.389 7.04575 110.086 7.65284 109.377 7.85521Z" fill="white"/>
<path d="M0 17.4674H96.1226V0.772461H0V17.4674ZM2.12482 3.20082H93.5931V15.3426H2.12482V3.20082Z" fill="white"/>
</g>
</g>
</g>
<defs>
<clipPath id="clip0_42_1653">
<rect width="411" height="17.3" fill="white" transform="translate(0 0.469971)"/>
</clipPath>
<clipPath id="clip1_42_1653">
<rect width="411" height="17.3" fill="white" transform="translate(0 0.469971)"/>
</clipPath>
<clipPath id="clip2_42_1653">
<rect width="411" height="17.3021" fill="white" transform="translate(0 0.468994)"/>
</clipPath>
</defs>
</svg>
