<svg width="167" height="32" viewBox="0 0 167 32" fill="none" xmlns="http://www.w3.org/2000/svg">
<mask id="mask0_42_1626" style="mask-type:luminance" maskUnits="userSpaceOnUse" x="0" y="-1" width="167" height="33">
<path d="M166.229 -0.00488281H0V31.8046H166.229V-0.00488281Z" fill="white"/>
</mask>
<g mask="url(#mask0_42_1626)">
<path fill-rule="evenodd" clip-rule="evenodd" d="M28.111 19.0636C28.4576 17.7874 28.6388 16.4402 28.6152 15.0458C28.4733 7.15199 21.9582 0.85743 14.0565 0.991356C6.15485 1.12528 -0.131826 7.6483 0.00210064 15.55C0.0651249 19.0242 1.35712 22.1832 3.46056 24.6255L14.3086 13.7774L22.3285 21.7973C20.4692 24.0819 17.6568 25.5709 14.482 25.626C11.9058 25.6733 9.53453 24.7673 7.69895 23.2311L4.87072 26.0592C7.44685 28.3203 10.8501 29.6674 14.545 29.6044C20.2645 29.502 25.141 26.0592 27.3467 21.167L14.3086 8.13674L4.35866 18.0788C4.13019 17.2517 3.99627 16.3772 3.98051 15.4712C3.8781 9.77537 8.42373 5.07218 14.1274 4.96976C19.8312 4.86736 24.5343 9.41298 24.6368 15.1167C24.6368 15.2742 24.6368 15.4318 24.6368 15.5893L28.111 19.0636Z" fill="#2A2A2A"/>
<path fill-rule="evenodd" clip-rule="evenodd" d="M39.4711 13.0445C39.2899 11.6501 37.9507 11.4926 36.7846 11.4926C35.5794 11.4926 34.7994 12.0361 34.7994 12.753C34.7994 13.3202 35.28 13.6432 36.0284 13.7614L39.6838 14.3444C41.6376 14.6595 43.1265 15.4001 43.1265 17.3538C43.1265 19.3548 41.7715 20.962 37.5489 20.962C34.9333 20.962 31.5379 20.631 31.5063 17.2829H34.7836C34.8151 18.7561 36.2883 19.0082 37.5489 19.0082C38.9197 19.0082 39.8492 18.6064 39.8492 17.6689C39.8492 16.8417 39.1875 16.6212 38.0294 16.4399L35.3666 16.0303C33.4995 15.7467 31.7034 15.1873 31.7034 12.9973C31.7034 10.6102 33.6571 9.6333 37.021 9.6333C39.2269 9.6333 42.5041 10.0114 42.7011 13.0445H39.4711Z" fill="#2A2A2A"/>
<path fill-rule="evenodd" clip-rule="evenodd" d="M44.4185 9.93262H47.3333V16.0932C47.3333 17.1489 47.3805 18.9215 50.0512 18.9215C52.7218 18.9215 52.7692 17.1489 52.7692 16.0932V9.93262H55.684V16.8181C55.684 18.0233 55.5343 20.9697 50.0512 20.9697C44.5681 20.9697 44.4185 18.0233 44.4185 16.8181V9.93262Z" fill="#2A2A2A"/>
<path fill-rule="evenodd" clip-rule="evenodd" d="M68.0291 9.93262H72.3147V20.6625H69.4864V12.0676H69.4549L66.0595 20.6625H63.6252L60.2298 12.0676H60.1982V20.6625H57.3779V9.93262H61.6557L64.8463 17.6531L68.0291 9.93262Z" fill="#2A2A2A"/>
<path fill-rule="evenodd" clip-rule="evenodd" d="M84.7146 9.93262H89.0002V20.6625H86.172V12.0676H86.1405L82.7451 20.6625H80.3108L76.9153 12.0676H76.8838V20.6625H74.0635V9.93262H78.3413L81.5319 17.6531L84.7146 9.93262Z" fill="#2A2A2A"/>
<path fill-rule="evenodd" clip-rule="evenodd" d="M90.749 20.6625H93.6639V9.93262H90.749V20.6625Z" fill="#2A2A2A"/>
<path fill-rule="evenodd" clip-rule="evenodd" d="M99.0996 11.9731H95.1211V9.93262H106.001V11.9731H102.014V20.6625H99.0996V11.9731Z" fill="#2A2A2A"/>
<path fill-rule="evenodd" clip-rule="evenodd" d="M108.687 17.1254C108.719 19.0477 110.523 19.544 112.146 19.544C113.847 19.544 115.045 18.898 115.045 17.7241C115.045 16.7473 114.281 16.3376 113.044 16.1328L110.61 15.7231C109.333 15.5104 107.419 14.9984 107.419 12.9107C107.419 10.957 108.972 9.64917 111.72 9.64917C113.871 9.64917 116.141 10.4291 116.29 13.0131H114.698C114.564 12.1701 114.084 11.0278 111.515 11.0278C110.342 11.0278 109.018 11.5242 109.018 12.7846C109.018 13.4464 109.452 13.9742 110.775 14.1948L113.406 14.6439C114.249 14.7935 116.637 15.2031 116.637 17.3933C116.637 20.127 114.186 20.9069 112.02 20.9069C109.602 20.9069 107.088 20.0639 107.088 17.1018H108.687V17.1254Z" fill="#2A2A2A"/>
<path fill-rule="evenodd" clip-rule="evenodd" d="M118.031 9.92505H126.658V11.3116H119.623V14.4235H126.453V15.8021H119.623V19.2763H126.807V20.6628H118.031V9.92505Z" fill="#2A2A2A"/>
<path fill-rule="evenodd" clip-rule="evenodd" d="M128.674 9.92505H135.316C137.466 9.92505 138.246 11.414 138.246 12.7769C138.246 14.0847 137.616 15.0457 136.442 15.424V15.4555C137.387 15.5894 137.947 16.4795 138.001 17.7401C138.088 19.7411 138.152 20.2374 138.513 20.6549H136.827C136.576 20.3555 136.576 19.9065 136.496 18.6146C136.394 16.6923 135.748 16.1014 134.425 16.1014H130.265V20.6549H128.674V9.92505ZM134.716 14.7228C136.276 14.7228 136.655 13.7774 136.655 13.0211C136.655 11.997 136.04 11.3116 134.764 11.3116H130.273V14.7228H134.716Z" fill="#2A2A2A"/>
<path fill-rule="evenodd" clip-rule="evenodd" d="M140.16 20.6628H141.751V9.92505H140.16V20.6628Z" fill="#2A2A2A"/>
<path fill-rule="evenodd" clip-rule="evenodd" d="M144.202 9.92505H152.828V11.3116H145.793V14.4235H152.615V15.8021H145.793V19.2763H152.978V20.6628H144.202V9.92505Z" fill="#2A2A2A"/>
<path fill-rule="evenodd" clip-rule="evenodd" d="M155.459 17.1254C155.491 19.0477 157.295 19.544 158.918 19.544C160.619 19.544 161.817 18.898 161.817 17.7241C161.817 16.7473 161.053 16.3376 159.816 16.1328L157.382 15.7231C156.105 15.5104 154.191 14.9984 154.191 12.9107C154.191 10.957 155.744 9.64917 158.493 9.64917C160.643 9.64917 162.913 10.4291 163.062 13.0131H161.47C161.337 12.1701 160.856 11.0278 158.287 11.0278C157.114 11.0278 155.79 11.5242 155.79 12.7846C155.79 13.4464 156.224 13.9742 157.547 14.1948L160.179 14.6439C161.022 14.7935 163.409 15.2031 163.409 17.3933C163.409 20.127 160.958 20.9069 158.792 20.9069C156.374 20.9069 153.86 20.0639 153.86 17.1018H155.459V17.1254Z" fill="#2A2A2A"/>
<path fill-rule="evenodd" clip-rule="evenodd" d="M165.764 9.6333L165.41 10.5629L165.055 9.6333H164.59V11.0513H164.921V10.0508H164.928L165.291 11.0513H165.528L165.89 10.0508H165.898V11.0513H166.229V9.6333H165.764ZM163.25 9.6333V9.90903H163.653V11.0513H164.007V9.90903H164.409V9.6333H163.25Z" fill="#2A2A2A"/>
</g>
</svg>
