<svg width="27" height="27" viewBox="0 0 27 27" fill="none" xmlns="http://www.w3.org/2000/svg">
<path fill-rule="evenodd" clip-rule="evenodd" d="M12.4085 24C19.0259 24 24.3903 18.6274 24.3903 12C24.3903 5.37258 19.0259 0 12.4085 0C5.79118 0 0.426758 5.37258 0.426758 12C0.426758 18.6274 5.79118 24 12.4085 24ZM12.4084 22C17.9229 22 22.3932 17.5228 22.3932 12C22.3932 6.47715 17.9229 2 12.4084 2C6.89394 2 2.42358 6.47715 2.42358 12C2.42358 17.5228 6.89394 22 12.4084 22Z" fill="black"/>
<path d="M25.0167 26.335C25.3964 26.7361 26.0289 26.7529 26.4294 26.3726C26.8298 25.9924 26.8467 25.3589 26.467 24.9579L25.0167 26.335ZM19.6713 20.6886L25.0167 26.335L26.467 24.9579L21.1216 19.3114L19.6713 20.6886Z" fill="black"/>
</svg>
